<?xml version="1.0" encoding="UTF-8"?>
<svg id="Pie_day_text" data-name="Pie day text" xmlns="http://www.w3.org/2000/svg" width="100" height="100" viewBox="0 0 100 100">
  <defs>
    <style>
      .cls-1 {
        fill: #2daae1;
      }
    </style>
  </defs>
  <g id="pie-day-text">
    <g id="circle">
      <circle cx="50" cy="50" r="49.5"/>
      <path class="cls-1" d="m50,1c27.02,0,49,21.98,49,49s-21.98,49-49,49S1,77.02,1,50,22.98,1,50,1m0-1C22.39,0,0,22.39,0,50s22.39,50,50,50,50-22.39,50-50S77.61,0,50,0h0Z"/>
    </g>
    <g>
      <path class="cls-1" d="m37.03,87.63v-10.92h3.08c.95,0,1.79.21,2.52.63.73.42,1.29,1.02,1.69,1.79.4.78.6,1.67.6,2.67v.7c0,1.03-.2,1.93-.6,2.71-.4.78-.96,1.37-1.7,1.79-.74.42-1.6.63-2.58.64h-3.02Zm1.44-9.75v8.57h1.52c1.11,0,1.97-.35,2.59-1.04.62-.69.93-1.67.93-2.95v-.64c0-1.24-.29-2.21-.87-2.9s-1.41-1.04-2.48-1.05h-1.68Z"/>
      <path class="cls-1" d="m52.99,84.77h-4.58l-1.03,2.86h-1.49l4.17-10.92h1.26l4.18,10.92h-1.48l-1.04-2.86Zm-4.14-1.18h3.71l-1.86-5.11-1.85,5.11Z"/>
      <path class="cls-1" d="m59.6,82.19l2.85-5.48h1.64l-3.77,6.85v4.07h-1.44v-4.07l-3.77-6.85h1.65l2.84,5.48Z"/>
    </g>
    <g>
      <path class="cls-1" d="m74.42,47.88h2.62v2.62h-7.86v2.62h2.62v2.62h2.62v2.62h-2.62v2.62h-2.62v2.62h7.86v2.62h2.62v2.62h-13.1v-2.62h-2.62v-7.86h2.62v-5.24h-2.62v-2.62h-2.62v-5.24h13.1v2.62Z"/>
      <path class="cls-1" d="m61.12,68.85h-2.44v-2.44h2.44v2.44Z"/>
      <path class="cls-1" d="m52.18,47.88h2.62v2.62h2.62v2.62h-5.24v10.48h2.62v2.62h2.62v2.62h-13.1v-2.62h-2.62v-2.62h5.24v-18.35h5.24v2.62Z"/>
      <path class="cls-1" d="m28.4,47.88h2.62v2.62h2.62v2.62h2.62v2.62h2.62v7.86h-10.48v5.24h-5.24v-23.59h5.24v2.62Zm0,5.24v5.24h5.24v-2.62h-2.62v-2.62h-2.62Z"/>
    </g>
    <g id="cake">
      <path id="cake-border" class="cls-1" d="m36.39,36.81c-3.13,0-6.19-2.37-6.97-5.4l-1.16-4.46-.37-.12c-2.5-.82-4.18-3.13-4.18-5.76,0-3.05,2.28-5.63,5.3-6.01l.27-.03.18-.2c1.72-1.95,8.28-8.29,20.71-8.29s18.75,6.34,20.4,8.29l.18.21.27.04c3.01.39,5.28,2.97,5.28,6.01,0,2.47-1.55,4.74-3.86,5.64l-.34.13-1.18,4.57c-.78,3.03-3.85,5.4-6.97,5.4h-27.55Zm-2.09-11.71c-.85.96-1.96,1.61-3.2,1.89l-.72.16.98,3.76c.55,2.11,2.85,3.89,5.03,3.89h27.55c2.18,0,4.48-1.78,5.03-3.89l.97-3.74-.76-.13c-1.34-.23-2.57-.92-3.48-1.94l-.53-.59-.53.59c-1.15,1.29-2.8,2.04-4.53,2.04s-3.37-.74-4.53-2.04l-.53-.59-.53.59c-1.15,1.29-2.8,2.04-4.53,2.04s-3.38-.74-4.53-2.04l-.53-.59-.53.59c-1.15,1.29-2.8,2.04-4.53,2.04s-3.38-.74-4.53-2.04l-.53-.59-.53.59Zm30.87-5.03c.55,0,1,.45,1,1,0,2.23,1.82,4.05,4.05,4.05,1.08,0,2.1-.42,2.86-1.19.77-.77,1.19-1.78,1.19-2.86,0-2.23-1.82-4.05-4.05-4.05-.33,0-.64-.16-.82-.43-.02-.02-1.48-2.07-4.61-4.07-4.12-2.64-9.04-3.98-14.63-3.98s-10.58,1.34-14.81,3.99c-3.19,2-4.75,4.06-4.77,4.08-.19.26-.49.41-.81.41-2.23,0-4.05,1.82-4.05,4.05s1.82,4.05,4.05,4.05,4.05-1.82,4.05-4.05c0-.55.45-1,1-1s1,.45,1,1c0,2.23,1.82,4.05,4.05,4.05s4.05-1.82,4.05-4.05c0-.55.45-1,1-1s1,.45,1,1c0,2.23,1.82,4.05,4.05,4.05s4.05-1.82,4.05-4.05c0-.55.45-1,1-1s1,.45,1,1c0,2.23,1.82,4.05,4.05,4.05s4.05-1.82,4.05-4.05c0-.55.45-1,1-1Z"/>
      <path id="cake-line-center" class="cls-1" d="m50.16,15.61c-.55,0-1-.45-1-1v-2.83c0-.55.45-1,1-1s1,.45,1,1v2.83c0,.55-.45,1-1,1Z"/>
      <path id="cake-line-left" class="cls-1" d="m41.68,15.27c-.24,0-.46-.08-.64-.24-.21-.17-.33-.41-.35-.68s.06-.53.23-.73l1.82-2.17c.19-.23.47-.36.77-.36.24,0,.46.08.64.24.42.36.48.99.12,1.42l-1.82,2.17c-.19.23-.47.36-.77.36Z"/>
      <path id="cake-line-right" class="cls-1" d="m58.65,15.27c-.3,0-.58-.13-.77-.36l-1.82-2.17c-.17-.21-.25-.47-.23-.73.02-.27.15-.51.35-.68.18-.15.41-.24.64-.24.3,0,.58.13.77.36l1.82,2.17c.17.21.25.47.23.73s-.15.51-.35.68c-.18.15-.41.24-.64.24Z"/>
    </g>
  </g>
</svg>