<?xml version="1.0" encoding="UTF-8"?>
<svg id="Pie_day_number" data-name="Pie day number" xmlns="http://www.w3.org/2000/svg" width="100" height="100" viewBox="0 0 100 100">
  <defs>
    <style>
      .cls-1 {
        fill: #2daae1;
      }
    </style>
  </defs>
  <g id="pie-day-number">
    <g id="circle">
      <circle class="cls-1" cx="50" cy="50" r="49.5"/>
      <path d="m50,1c27.02,0,49,21.98,49,49s-21.98,49-49,49S1,77.02,1,50,22.98,1,50,1m0-1C22.39,0,0,22.39,0,50s22.39,50,50,50,50-22.39,50-50S77.61,0,50,0h0Z"/>
    </g>
    <g>
      <path d="m37.03,87.63v-10.92h3.08c.95,0,1.79.21,2.52.63.73.42,1.29,1.02,1.69,1.79.4.78.6,1.67.6,2.67v.7c0,1.03-.2,1.93-.6,2.71-.4.78-.96,1.37-1.7,1.79-.74.42-1.6.63-2.58.64h-3.02Zm1.44-9.75v8.57h1.52c1.11,0,1.97-.35,2.59-1.04.62-.69.93-1.67.93-2.95v-.64c0-1.24-.29-2.21-.87-2.9s-1.41-1.04-2.48-1.05h-1.68Z"/>
      <path d="m52.99,84.77h-4.58l-1.03,2.86h-1.49l4.17-10.92h1.26l4.18,10.92h-1.48l-1.04-2.86Zm-4.14-1.18h3.71l-1.86-5.11-1.85,5.11Z"/>
      <path d="m59.6,82.19l2.85-5.48h1.64l-3.77,6.85v4.07h-1.44v-4.07l-3.77-6.85h1.65l2.84,5.48Z"/>
    </g>
    <g>
      <path d="m25.58,45.24h13.1v5.24h-2.62v2.62h-2.62v5.24h2.62v7.86h-2.62v2.62h-13.1v-2.62h2.62v-2.62h7.86v-2.62h-2.62v-2.62h-2.62v-2.62h2.62v-2.62h2.62v-2.62h-7.86v-2.62h2.62v-2.62Z"/>
      <path d="m38.88,66.39h2.44v2.44h-2.44v-2.44Z"/>
      <path d="m47.82,45.24h5.24v18.35h5.24v2.62h-2.62v2.62h-13.1v-2.62h2.62v-2.62h2.62v-10.48h-5.24v-2.62h2.62v-2.62h2.62v-2.62Z"/>
      <path d="m71.6,45.24h5.24v23.59h-5.24v-5.24h-10.48v-7.86h2.62v-2.62h2.62v-2.62h2.62v-2.62h2.62v-2.62Zm-2.62,7.86v2.62h-2.62v2.62h5.24v-5.24h-2.62Z"/>
    </g>
    <path d="m58.04,13.62c0,.34-.02.84-.06,1.49-.12,4.41-.18,7.51-.18,9.31v2.49c0,3.42.17,5.58.52,6.48.34.9.98,1.35,1.91,1.35,1.15,0,2.02-.59,2.59-1.76.58-1.17.92-3.02,1.02-5.55h1.55v.3c0,3.32-.53,5.76-1.59,7.33-1.06,1.57-2.73,2.35-4.99,2.35s-4.02-.81-4.98-2.44c-.95-1.63-1.43-5.03-1.43-10.21,0-.63.03-2.25.09-4.87.06-2.62.11-4.77.15-6.45-.75-.04-1.78-.08-3.09-.11s-2.91-.06-4.79-.08c0,9.59-.47,16.01-1.41,19.26-.94,3.26-2.6,4.88-4.99,4.88-1.46,0-2.54-.59-3.26-1.77s-1.08-2.97-1.08-5.35v-1.18h1.49c.04,1.13.24,1.96.61,2.47s.93.77,1.7.77c1.7,0,2.9-1.29,3.61-3.87s1.11-7.65,1.21-15.21h-1.37c-1.56,0-2.79.27-3.7.82-.91.55-1.48,1.37-1.7,2.46h-1.43c.14-2.83.93-4.81,2.37-5.95,1.44-1.13,3.94-1.7,7.52-1.7.71,0,2.82.07,6.33.2s6.66.2,9.45.2c1.38,0,2.4-.15,3.08-.44.68-.29,1.02-.73,1.02-1.32v-.06h1.43v.18c0,2.12-.48,3.66-1.44,4.61-.96.95-2.5,1.43-4.63,1.43-.38,0-.68,0-.9-.02-.21,0-.42-.02-.62-.05Z"/>
  </g>
</svg>